<svg width="18" height="19" viewBox="0 0 18 19" fill="none" xmlns="http://www.w3.org/2000/svg">
<path d="M5.71125 17C5.36625 17 5.07825 16.8845 4.84725 16.6535C4.61575 16.422 4.5 16.1337 4.5 15.7887V3.21125C4.5 2.86625 4.61575 2.57825 4.84725 2.34725C5.07825 2.11575 5.36625 2 5.71125 2H12.2888C12.6337 2 12.9218 2.11575 13.1528 2.34725C13.3843 2.57825 13.5 2.86625 13.5 3.21125V15.7887C13.5 16.1337 13.3845 16.4218 13.1535 16.6528C12.922 16.8843 12.6337 17 12.2888 17H5.71125ZM5.25 14.375H12.75V4.625H5.25V14.375Z" fill="#4C4C4C"/>
<path d="M9.14746 11.9805V11.5527C8.57324 11.5156 8.13281 11.3066 7.82617 10.9258C7.51953 10.543 7.36621 10.0186 7.36621 9.35254C7.36621 8.72754 7.52344 8.22266 7.83789 7.83789C8.15234 7.45117 8.58887 7.22949 9.14746 7.17285V6.94727H9.53125V7.15527C9.94531 7.1748 10.3037 7.25879 10.6064 7.40723L10.3896 7.86426C10.0869 7.72754 9.80078 7.65137 9.53125 7.63574V11.0869C9.79883 11.0771 10.1016 11.0205 10.4395 10.917V11.3857C10.1504 11.4912 9.84766 11.5469 9.53125 11.5527V11.9805H9.14746ZM7.93457 9.3584C7.93457 9.85645 8.03809 10.2529 8.24512 10.5479C8.4541 10.8428 8.75488 11.0166 9.14746 11.0693V7.64746C8.76855 7.70605 8.47168 7.88672 8.25684 8.18945C8.04199 8.49023 7.93457 8.87988 7.93457 9.3584Z" fill="#3BD64A"/>
</svg>
