<svg width="69" height="33" viewBox="0 0 69 33" fill="none" xmlns="http://www.w3.org/2000/svg">
<path d="M66.2676 22.0995H48.9586C48.4377 22.0995 47.9537 21.9623 47.6114 21.7367C47.269 21.511 47.1271 21.2406 47.1271 21.0057V12.4495C47.1271 12.2146 47.269 11.9442 47.6114 11.7185C47.9537 11.4929 48.4377 11.3556 48.9586 11.3556H66.2676C66.7885 11.3556 67.2725 11.4929 67.6148 11.7185C67.9572 11.9442 68.0991 12.2146 68.0991 12.4495V21.0057C68.0991 21.2406 67.9572 21.511 67.6148 21.7367C67.2725 21.9623 66.7885 22.0995 66.2676 22.0995Z" fill="#3BD64A" stroke="url(#paint0_linear_757_4541)" stroke-width="0.664389"/>
<path d="M4.94574 20.9874H11.6317V23.5H1.49629V21.2004L8.13968 11.1501H1.49629V8.63754H11.6317V10.9372L4.94574 20.9874ZM15.681 10.2984C15.1558 10.2984 14.7158 10.1351 14.3609 9.80865C14.0202 9.46796 13.8498 9.0492 13.8498 8.55237C13.8498 8.05553 14.0202 7.64387 14.3609 7.31738C14.7158 6.97669 15.1558 6.80635 15.681 6.80635C16.2063 6.80635 16.6392 6.97669 16.9799 7.31738C17.3348 7.64387 17.5122 8.05553 17.5122 8.55237C17.5122 9.0492 17.3348 9.46796 16.9799 9.80865C16.6392 10.1351 16.2063 10.2984 15.681 10.2984ZM17.1502 11.7037V23.5H14.1692V11.7037H17.1502ZM23.0765 13.4284C23.4598 12.8606 23.985 12.3993 24.6522 12.0444C25.3335 11.6895 26.1072 11.5121 26.9731 11.5121C27.981 11.5121 28.8895 11.7605 29.6986 12.2573C30.5219 12.7542 31.1678 13.4639 31.6363 14.3866C32.1189 15.2951 32.3602 16.3527 32.3602 17.5593C32.3602 18.7659 32.1189 19.8376 31.6363 20.7745C31.1678 21.6972 30.5219 22.4141 29.6986 22.9251C28.8895 23.4361 27.981 23.6916 26.9731 23.6916C26.093 23.6916 25.3194 23.5213 24.6522 23.1806C23.9992 22.8257 23.474 22.3715 23.0765 21.8179V23.5H20.0955V7.74324H23.0765V13.4284ZM29.3153 17.5593C29.3153 16.8495 29.1663 16.2391 28.8682 15.7281C28.5843 15.2029 28.201 14.8054 27.7184 14.5357C27.2499 14.266 26.7389 14.1311 26.1853 14.1311C25.6458 14.1311 25.1348 14.2731 24.6522 14.557C24.1837 14.8267 23.8005 15.2242 23.5024 15.7494C23.2184 16.2746 23.0765 16.8921 23.0765 17.6019C23.0765 18.3116 23.2184 18.9291 23.5024 19.4543C23.8005 19.9796 24.1837 20.3841 24.6522 20.668C25.1348 20.9378 25.6458 21.0726 26.1853 21.0726C26.7389 21.0726 27.2499 20.9307 27.7184 20.6467C28.201 20.3628 28.5843 19.9583 28.8682 19.4331C29.1663 18.9078 29.3153 18.2832 29.3153 17.5593ZM33.7599 17.5593C33.7599 16.3669 33.9941 15.3093 34.4626 14.3866C34.9452 13.4639 35.5911 12.7542 36.4002 12.2573C37.2235 11.7605 38.1391 11.5121 39.147 11.5121C40.0271 11.5121 40.7936 11.6895 41.4466 12.0444C42.1138 12.3993 42.6461 12.8464 43.0436 13.3859V11.7037H46.0459V23.5H43.0436V21.7753C42.6603 22.3289 42.128 22.7902 41.4466 23.1593C40.7795 23.5142 40.0058 23.6916 39.1257 23.6916C38.132 23.6916 37.2235 23.4361 36.4002 22.9251C35.5911 22.4141 34.9452 21.6972 34.4626 20.7745C33.9941 19.8376 33.7599 18.7659 33.7599 17.5593ZM43.0436 17.6019C43.0436 16.8779 42.9016 16.2604 42.6177 15.7494C42.3338 15.2242 41.9506 14.8267 41.4679 14.557C40.9853 14.2731 40.4672 14.1311 39.9135 14.1311C39.3599 14.1311 38.8489 14.266 38.3805 14.5357C37.912 14.8054 37.5287 15.2029 37.2306 15.7281C36.9467 16.2391 36.8048 16.8495 36.8048 17.5593C36.8048 18.269 36.9467 18.8936 37.2306 19.4331C37.5287 19.9583 37.912 20.3628 38.3805 20.6467C38.8631 20.9307 39.3741 21.0726 39.9135 21.0726C40.4672 21.0726 40.9853 20.9378 41.4679 20.668C41.9506 20.3841 42.3338 19.9867 42.6177 19.4756C42.9016 18.9504 43.0436 18.3258 43.0436 17.6019Z" fill="black"/>
<path d="M54.8322 15.7628C54.8322 16.1811 54.688 16.5297 54.3995 16.8085C54.1158 17.0826 53.6807 17.2196 53.0941 17.2196H52.1277V19.3184H51.4713V14.2915H53.0941C53.6614 14.2915 54.0918 14.4285 54.385 14.7026C54.6831 14.9767 54.8322 15.3301 54.8322 15.7628ZM53.0941 16.6787C53.4595 16.6787 53.7287 16.5994 53.9018 16.4407C54.0749 16.2821 54.1615 16.0561 54.1615 15.7628C54.1615 15.1425 53.8057 14.8324 53.0941 14.8324H52.1277V16.6787H53.0941ZM55.4027 17.3278C55.4027 16.9239 55.4844 16.5705 55.6479 16.2676C55.8114 15.9599 56.0349 15.7219 56.3186 15.5536C56.6071 15.3854 56.9268 15.3012 57.2778 15.3012C57.624 15.3012 57.9245 15.3757 58.1794 15.5248C58.4342 15.6738 58.6241 15.8614 58.7491 16.0873V15.3661H59.4126V19.3184H58.7491V18.5827C58.6193 18.8135 58.4246 19.0058 58.1649 19.1597C57.9101 19.3087 57.612 19.3833 57.2706 19.3833C56.9196 19.3833 56.6023 19.2967 56.3186 19.1236C56.0349 18.9505 55.8114 18.7077 55.6479 18.3952C55.4844 18.0827 55.4027 17.7269 55.4027 17.3278ZM58.7491 17.335C58.7491 17.0369 58.689 16.7773 58.5688 16.5561C58.4486 16.3349 58.2851 16.1667 58.0784 16.0513C57.8764 15.9311 57.6529 15.871 57.4077 15.871C57.1624 15.871 56.9389 15.9287 56.7369 16.0441C56.535 16.1595 56.3739 16.3277 56.2537 16.5489C56.1335 16.7701 56.0734 17.0297 56.0734 17.3278C56.0734 17.6307 56.1335 17.8952 56.2537 18.1211C56.3739 18.3423 56.535 18.513 56.7369 18.6332C56.9389 18.7486 57.1624 18.8063 57.4077 18.8063C57.6529 18.8063 57.8764 18.7486 58.0784 18.6332C58.2851 18.513 58.4486 18.3423 58.5688 18.1211C58.689 17.8952 58.7491 17.6331 58.7491 17.335ZM63.9258 15.3661L61.5458 21.1791H60.8679L61.6468 19.2751L60.0529 15.3661H60.7813L62.0218 18.5683L63.2479 15.3661H63.9258Z" fill="white"/>
<defs>
<linearGradient id="paint0_linear_757_4541" x1="57.6131" y1="11.0234" x2="57.6131" y2="22.4317" gradientUnits="userSpaceOnUse">
<stop stop-color="#3BD64A"/>
<stop offset="1" stop-color="#666666"/>
</linearGradient>
</defs>
</svg>
