<svg width="77" height="36" viewBox="0 0 77 36" fill="none" xmlns="http://www.w3.org/2000/svg">
<path d="M73.4022 9.44399L71.1989 6.4043L63.0975 12.7729L62.6484 12.7681V12.7749H62.2949V20.959H76.8496V12.7749H76.1828L74.8563 8.95636L73.4022 9.44399ZM74.7184 12.7749H67.7682L72.9448 11.0385L73.9996 10.7064L74.7184 12.7749ZM72.0327 9.90366L66.689 11.696L70.921 8.36915L72.0327 9.90366ZM63.6811 18.3462V15.3863C63.9735 15.2843 64.2391 15.1194 64.4585 14.9037C64.6779 14.6879 64.8456 14.4266 64.9494 14.1389H74.1951C74.2988 14.4267 74.4665 14.6881 74.6859 14.904C74.9054 15.1199 75.171 15.2849 75.4634 15.387V18.3469C75.171 18.449 74.9054 18.614 74.6859 18.8299C74.4665 19.0458 74.2988 19.3072 74.1951 19.595H64.9508C64.847 19.3069 64.6791 19.0454 64.4594 18.8293C64.2398 18.6133 63.9738 18.4482 63.6811 18.3462Z" fill="#3BD64A"/>
<path d="M74.4031 24.4099H54.8417C54.2531 24.4099 53.7061 24.2548 53.3193 23.9999L53.1127 24.3133L53.3193 23.9999C52.9323 23.7448 52.7719 23.4392 52.7719 23.1738V13.5042C52.7719 13.2387 52.9323 12.9331 53.3193 12.6781C53.7061 12.4231 54.2531 12.268 54.8417 12.268H74.4031C74.9917 12.268 75.5387 12.4231 75.9255 12.6781C76.3125 12.9331 76.4729 13.2387 76.4729 13.5042V23.1738C76.4729 23.4392 76.3125 23.7448 75.9255 23.9999C75.5387 24.2548 74.9917 24.4099 74.4031 24.4099Z" fill="#3BD64A" stroke="url(#paint0_linear_1903_13055)" stroke-width="0.750844"/>
<path d="M5.10151 23.1605H12.6575V26H1.20319V23.4011L8.71107 12.043H1.20319V9.20353H12.6575V11.8024L5.10151 23.1605ZM17.2338 11.0805C16.6402 11.0805 16.1429 10.896 15.7418 10.527C15.3568 10.142 15.1643 9.66876 15.1643 9.10727C15.1643 8.54578 15.3568 8.08055 15.7418 7.71158C16.1429 7.32656 16.6402 7.13405 17.2338 7.13405C17.8273 7.13405 18.3166 7.32656 18.7016 7.71158C19.1027 8.08055 19.3032 8.54578 19.3032 9.10727C19.3032 9.66876 19.1027 10.142 18.7016 10.527C18.3166 10.896 17.8273 11.0805 17.2338 11.0805ZM18.8942 12.6687V26H15.5252V12.6687H18.8942ZM25.5916 14.6179C26.0247 13.9762 26.6183 13.4548 27.3723 13.0537C28.1423 12.6527 29.0166 12.4521 29.9952 12.4521C31.1342 12.4521 32.161 12.7329 33.0754 13.2944C34.0059 13.8558 34.7358 14.658 35.2652 15.7007C35.8106 16.7274 36.0834 17.9226 36.0834 19.2862C36.0834 20.6498 35.8106 21.861 35.2652 22.9198C34.7358 23.9626 34.0059 24.7728 33.0754 25.3503C32.161 25.9278 31.1342 26.2166 29.9952 26.2166C29.0006 26.2166 28.1263 26.0241 27.3723 25.639C26.6343 25.238 26.0408 24.7246 25.5916 24.099V26H22.2227V8.19285H25.5916V14.6179ZM32.6422 19.2862C32.6422 18.4841 32.4738 17.7943 32.1369 17.2167C31.8161 16.6232 31.3829 16.174 30.8375 15.8692C30.3081 15.5644 29.7305 15.412 29.1049 15.412C28.4953 15.412 27.9177 15.5724 27.3723 15.8932C26.8429 16.198 26.4097 16.6472 26.0728 17.2408C25.752 17.8344 25.5916 18.5322 25.5916 19.3344C25.5916 20.1365 25.752 20.8343 26.0728 21.4279C26.4097 22.0215 26.8429 22.4787 27.3723 22.7995C27.9177 23.1043 28.4953 23.2567 29.1049 23.2567C29.7305 23.2567 30.3081 23.0963 30.8375 22.7755C31.3829 22.4546 31.8161 21.9974 32.1369 21.4038C32.4738 20.8103 32.6422 20.1044 32.6422 19.2862ZM37.6652 19.2862C37.6652 17.9387 37.9299 16.7435 38.4593 15.7007C39.0047 14.658 39.7346 13.8558 40.6491 13.2944C41.5795 12.7329 42.6143 12.4521 43.7533 12.4521C44.7479 12.4521 45.6142 12.6527 46.3522 13.0537C47.1062 13.4548 47.7078 13.9601 48.1569 14.5697V12.6687H51.5499V26H48.1569V24.0508C47.7238 24.6765 47.1222 25.1979 46.3522 25.615C45.5982 26.016 44.7239 26.2166 43.7292 26.2166C42.6062 26.2166 41.5795 25.9278 40.6491 25.3503C39.7346 24.7728 39.0047 23.9626 38.4593 22.9198C37.9299 21.861 37.6652 20.6498 37.6652 19.2862ZM48.1569 19.3344C48.1569 18.5162 47.9965 17.8183 47.6757 17.2408C47.3548 16.6472 46.9217 16.198 46.3762 15.8932C45.8308 15.5724 45.2452 15.412 44.6196 15.412C43.9939 15.412 43.4164 15.5644 42.887 15.8692C42.3576 16.174 41.9244 16.6232 41.5876 17.2167C41.2667 17.7943 41.1063 18.4841 41.1063 19.2862C41.1063 20.0883 41.2667 20.7942 41.5876 21.4038C41.9244 21.9974 42.3576 22.4546 42.887 22.7755C43.4324 23.0963 44.01 23.2567 44.6196 23.2567C45.2452 23.2567 45.8308 23.1043 46.3762 22.7995C46.9217 22.4787 47.3548 22.0295 47.6757 21.452C47.9965 20.8584 48.1569 20.1525 48.1569 19.3344Z" fill="black"/>
<path d="M61.4805 17.2083C61.4805 17.681 61.3175 18.075 60.9914 18.3901C60.6708 18.6999 60.1791 18.8547 59.5162 18.8547H58.424V21.2266H57.6823V15.5456H59.5162C60.1574 15.5456 60.6437 15.7004 60.9751 16.0102C61.312 16.3199 61.4805 16.7193 61.4805 17.2083ZM59.5162 18.2434C59.9291 18.2434 60.2334 18.1538 60.429 17.9745C60.6247 17.7952 60.7225 17.5398 60.7225 17.2083C60.7225 16.5074 60.3204 16.1569 59.5162 16.1569H58.424V18.2434H59.5162ZM62.1252 18.977C62.1252 18.5206 62.2176 18.1212 62.4023 17.7789C62.5871 17.4311 62.8397 17.1621 63.1603 16.9719C63.4863 16.7818 63.8477 16.6867 64.2444 16.6867C64.6356 16.6867 64.9752 16.7709 65.2632 16.9393C65.5512 17.1078 65.7658 17.3197 65.9071 17.5751V16.76H66.6569V21.2266H65.9071V20.3952C65.7604 20.656 65.5403 20.8734 65.2469 21.0472C64.9589 21.2157 64.622 21.2999 64.2362 21.2999C63.8395 21.2999 63.4809 21.2021 63.1603 21.0065C62.8397 20.8109 62.5871 20.5365 62.4023 20.1833C62.2176 19.8301 62.1252 19.428 62.1252 18.977ZM65.9071 18.9851C65.9071 18.6483 65.8392 18.3548 65.7033 18.1049C65.5675 17.8549 65.3827 17.6647 65.1491 17.5343C64.9209 17.3985 64.6682 17.3306 64.3911 17.3306C64.1139 17.3306 63.8613 17.3958 63.6331 17.5262C63.4048 17.6566 63.2228 17.8468 63.087 18.0967C62.9511 18.3467 62.8832 18.6401 62.8832 18.977C62.8832 19.3193 62.9511 19.6182 63.087 19.8736C63.2228 20.1235 63.4048 20.3164 63.6331 20.4523C63.8613 20.5827 64.1139 20.6479 64.3911 20.6479C64.6682 20.6479 64.9209 20.5827 65.1491 20.4523C65.3827 20.3164 65.5675 20.1235 65.7033 19.8736C65.8392 19.6182 65.9071 19.322 65.9071 18.9851ZM71.7574 16.76L69.0677 23.3294H68.3016L69.1818 21.1777L67.3806 16.76H68.2038L69.6057 20.3789L70.9913 16.76H71.7574Z" fill="white"/>
<defs>
<linearGradient id="paint0_linear_1903_13055" x1="64.6224" y1="11.8926" x2="64.6224" y2="24.7854" gradientUnits="userSpaceOnUse">
<stop stop-color="#3BD64A"/>
<stop offset="1" stop-color="#666666"/>
</linearGradient>
</defs>
</svg>
