<svg width="76" height="106" viewBox="0 0 76 106" fill="none" xmlns="http://www.w3.org/2000/svg">
<path d="M5.09017 19.1841C14.9257 15.9545 24.8745 10.8664 33.714 5.4858C36.1711 3.99015 38.644 2.52117 41.1104 1.04131C41.6301 0.729494 40.938 2.26809 40.6461 2.7992C37.944 7.715 35.1527 12.5699 32.5199 17.5257C26.6743 28.5292 21.4095 39.7901 15.7702 50.8925C12.4078 57.5122 8.81198 64.0065 4.12831 69.7982C3.25807 70.8743 0.110607 73.5793 1.24271 72.7833C10.3904 66.3513 21.8718 63.8228 30.8947 57.2607C34.0875 54.9387 37.3074 52.4241 39.6842 49.2341C44.6167 42.6141 45.3586 32.9334 46.7489 25.088C47.2829 22.0749 47.9336 18.9445 48.0756 15.8673C48.0921 15.5105 47.7295 16.5089 47.6776 16.8624C44.7925 36.5334 42.5673 56.3564 40.248 76.1C39.202 85.0047 36.7323 111.733 36.7323 102.767" stroke="#030A11" stroke-linecap="round" stroke-dasharray="12 12"/>
<path d="M48.0755 21.5713C54.4079 20.9245 60.9551 19.8377 67.346 20.0455C69.9294 20.1295 72.7188 20.571 74.1454 23.0306C76.5125 27.1118 72.7319 32.3917 69.7009 34.8715C64.2675 39.3171 54.3492 41.7965 47.4785 40.0789" stroke="#030A11" stroke-linecap="round" stroke-dasharray="12 12"/>
</svg>
